<?xml version="1.0" encoding="utf-8"?>
<!DOCTYPE svg PUBLIC "-//W3C//DTD SVG 1.1//EN" "http://www.w3.org/Graphics/SVG/1.1/DTD/svg11.dtd">
<svg version="1.1" id="Layer_1" xmlns="http://www.w3.org/2000/svg" xmlns:xlink="http://www.w3.org/1999/xlink" x="0px" y="0px"
	 width="19.996px" height="42px" viewBox="0 0 19.996 42" enable-background="new 0 0 19.996 42" xml:space="preserve">
<path fill="#FFFFFF" d="M0,0.072C6.271,8.614,14.364,20.578,14.648,21C14.364,21.422,6.271,33.386,0,41.928
	C0.001,41.952,0.001,41.976,0.001,42c7.763-6.795,18.406-18.207,19.98-20.987c0.005,0,0.01,0,0.015,0
	c-0.002-0.004-0.005-0.008-0.007-0.012c0.002-0.004,0.005-0.008,0.007-0.012c-0.005,0-0.01,0-0.015,0
	C18.408,18.207,7.765,6.796,0.001,0C0.001,0.024,0.001,0.048,0,0.072z"/>
</svg>
