<?xml version="1.0" encoding="utf-8"?>
<!DOCTYPE svg PUBLIC "-//W3C//DTD SVG 1.1//EN" "http://www.w3.org/Graphics/SVG/1.1/DTD/svg11.dtd">
<svg version="1.1" id="Layer_1" xmlns="http://www.w3.org/2000/svg" xmlns:xlink="http://www.w3.org/1999/xlink" x="0px" y="0px"
	 width="19.996px" height="42px" viewBox="0 0 19.996 42" enable-background="new 0 0 19.996 42" xml:space="preserve">
<path fill="#FFFFFF" d="M19.994,0C12.231,6.796,1.588,18.207,0.015,20.988c-0.005,0-0.01,0-0.015,0
	C0.002,20.992,0.005,20.996,0.007,21C0.005,21.004,0.002,21.009,0,21.012c0.005,0,0.01,0,0.015,0
	C1.588,23.793,12.231,35.204,19.994,42c0-0.024,0-0.048,0.001-0.072C13.725,33.386,5.632,21.422,5.347,21
	c0.285-0.422,8.377-12.386,14.648-20.928C19.994,0.048,19.994,0.024,19.994,0z"/>
</svg>
