<?xml version="1.0" encoding="utf-8"?>
<!DOCTYPE svg PUBLIC "-//W3C//DTD SVG 1.1//EN" "http://www.w3.org/Graphics/SVG/1.1/DTD/svg11.dtd">
<svg version="1.1" id="Layer_1" xmlns="http://www.w3.org/2000/svg" xmlns:xlink="http://www.w3.org/1999/xlink" x="0px" y="0px"
	 width="169.001px" height="96px" viewBox="0 0 169.001 96" enable-background="new 0 0 169.001 96" xml:space="preserve">
<g>
	<g>
		<g>
			<path fill="#2A3F63" d="M0,71.017h8.053c1.949,0,3.802,0.216,5.557,0.652s3.287,1.142,4.594,2.117
				c1.308,0.975,2.346,2.243,3.115,3.803c0.768,1.562,1.153,3.452,1.153,5.677c0,1.975-0.374,3.713-1.119,5.215
				c-0.745,1.503-1.75,2.766-3.012,3.785c-1.261,1.022-2.718,1.795-4.37,2.323c-1.651,0.528-3.385,0.791-5.197,0.791H0V71.017z
				 M5.369,90.425h2.787c1.239,0,2.393-0.127,3.459-0.379c1.067-0.253,1.991-0.671,2.771-1.255c0.78-0.586,1.393-1.354,1.841-2.306
				c0.447-0.954,0.67-2.117,0.67-3.494c0-1.191-0.223-2.23-0.67-3.114c-0.448-0.883-1.05-1.611-1.807-2.185
				c-0.757-0.574-1.647-1.005-2.667-1.29c-1.021-0.288-2.095-0.431-3.218-0.431H5.369V90.425z"/>
			<path fill="#2A3F63" d="M34.138,71.017h4.44L49.177,95.38H43.12l-2.099-5.161h-9.463l-2.03,5.161h-5.919L34.138,71.017z
				 M36.203,78.104l-2.959,7.571h5.954L36.203,78.104z"/>
			<path fill="#2A3F63" d="M51.619,71.017h7.296l10.358,16.93h0.069v-16.93h5.369V95.38H67.69L57.056,78.036h-0.069V95.38h-5.369
				V71.017z"/>
			<path fill="#2A3F63" d="M79.666,71.017h9.084c1.055,0,2.117,0.074,3.184,0.224c1.066,0.148,2.024,0.446,2.873,0.894
				c0.849,0.448,1.537,1.072,2.064,1.875c0.528,0.805,0.791,1.871,0.791,3.201c0,1.377-0.383,2.519-1.151,3.424
				c-0.77,0.906-1.784,1.554-3.046,1.944v0.068c0.803,0.116,1.53,0.339,2.186,0.672c0.654,0.333,1.216,0.758,1.686,1.272
				c0.469,0.518,0.831,1.119,1.084,1.808s0.379,1.422,0.379,2.202c0,1.284-0.276,2.357-0.826,3.218
				c-0.551,0.86-1.262,1.555-2.134,2.082c-0.871,0.528-1.853,0.906-2.942,1.136s-2.174,0.344-3.252,0.344h-9.979V71.017z
				 M85.034,80.755h3.888c0.413,0,0.821-0.045,1.222-0.137c0.401-0.092,0.762-0.242,1.084-0.449
				c0.319-0.207,0.578-0.481,0.773-0.825s0.293-0.757,0.293-1.239c0-0.504-0.109-0.923-0.327-1.256
				c-0.218-0.332-0.498-0.591-0.842-0.773c-0.346-0.184-0.736-0.315-1.171-0.396c-0.436-0.079-0.86-0.12-1.273-0.12h-3.647V80.755z
				 M85.034,90.839h4.816c0.414,0,0.833-0.047,1.257-0.138c0.425-0.092,0.81-0.253,1.153-0.482c0.344-0.229,0.624-0.527,0.842-0.895
				c0.219-0.367,0.328-0.815,0.328-1.343c0-0.573-0.145-1.038-0.431-1.395c-0.286-0.354-0.648-0.624-1.083-0.808
				c-0.438-0.184-0.907-0.31-1.413-0.379c-0.504-0.069-0.975-0.104-1.41-0.104h-4.06V90.839z"/>
			<path fill="#2A3F63" d="M122.51,85.985c0,1.445-0.22,2.775-0.655,3.991c-0.436,1.217-1.084,2.271-1.944,3.167
				c-0.859,0.895-1.933,1.595-3.217,2.099c-1.286,0.505-2.766,0.758-4.44,0.758c-1.697,0-3.188-0.253-4.473-0.758
				c-1.286-0.504-2.357-1.204-3.218-2.099c-0.86-0.896-1.509-1.95-1.945-3.167c-0.435-1.216-0.653-2.546-0.653-3.991V71.017h5.368
				v14.763c0,0.757,0.12,1.458,0.361,2.099c0.241,0.644,0.58,1.199,1.016,1.67c0.436,0.47,0.957,0.837,1.566,1.101
				c0.606,0.264,1.267,0.396,1.978,0.396s1.365-0.133,1.963-0.396c0.596-0.264,1.112-0.631,1.548-1.101
				c0.436-0.471,0.773-1.026,1.015-1.67c0.241-0.641,0.362-1.342,0.362-2.099V71.017h5.369V85.985z"/>
			<path fill="#2A3F63" d="M127.464,71.017h9.429c1.239,0,2.415,0.12,3.527,0.36c1.113,0.241,2.089,0.643,2.927,1.205
				c0.836,0.562,1.501,1.32,1.995,2.271c0.494,0.953,0.739,2.14,0.739,3.562c0,1.722-0.447,3.184-1.341,4.388
				c-0.896,1.206-2.203,1.968-3.924,2.289l6.194,10.289h-6.435l-5.094-9.738h-2.649v9.738h-5.369V71.017z M132.833,81.1h3.165
				c0.482,0,0.993-0.019,1.532-0.053s1.026-0.137,1.463-0.31c0.435-0.172,0.797-0.44,1.084-0.808
				c0.286-0.367,0.431-0.885,0.431-1.55c0-0.619-0.127-1.112-0.379-1.479c-0.254-0.366-0.575-0.648-0.964-0.843
				c-0.391-0.196-0.838-0.327-1.343-0.396c-0.505-0.068-0.998-0.103-1.479-0.103h-3.51V81.1z"/>
			<path fill="#2A3F63" d="M154.479,84.987l-9.154-13.971h6.677l5.161,9.119l5.473-9.119h6.366l-9.153,13.971V95.38h-5.369V84.987z"
				/>
		</g>
	</g>
	<g>
		<g>
			<rect x="77.194" y="28.579" fill="#2A3F63" width="7.032" height="4.787"/>
			<rect x="85.174" y="28.579" fill="#2A3F63" width="7.032" height="4.787"/>
			<rect x="77.194" y="34.234" fill="#2A3F63" width="7.032" height="4.787"/>
			<rect x="85.174" y="34.234" fill="#2A3F63" width="7.032" height="4.787"/>
		</g>
		<g>
			<path fill="#2A3F63" d="M7.501,55.669c6.696,1.143,13.351,1.991,20.15,2.177c8.189,0.228,16.391-0.383,24.504-1.485
				c8.314-1.134,16.62-2.776,24.728-4.947c7.904-2.016,15.79-3.79,23.958-4.308c11.087-0.701,22.085,0.545,32.866,3.138
				c5.296,1.274,10.534,2.844,15.659,4.688c2.419,0.868,4.83,1.764,7.208,2.739c0.437,0.179,3.663,1.511,4.925,2.075
				c-1.423-0.403-7.433-1.784-8.014-1.917c-3.635-0.839-7.27-1.669-10.929-2.403c-7.649-1.537-15.483-2.923-23.293-3.265
				c-8.21-0.359-16.276-0.173-24.412,1.088c-7.896,1.223-15.484,3.66-23.301,5.235c-11.525,2.324-23.188,3.703-34.963,3.203
				c-5.562-0.233-11.154-0.887-16.585-2.11c-2.668-0.602-5.319-1.284-7.916-2.146c-0.994-0.331-1.965-0.719-2.952-1.07
				C8.728,56.204,7.79,55.723,7.501,55.669z"/>
		</g>
		<g>
			<g>
				<path fill="#2A3F63" d="M84.73,14.403c0,0,0-8.006,0-14.403c-7.292,4.113-37.806,32.937-55.955,53.944
					c0.064,0,0.127,0,0.191,0.002C52.124,36.722,84.73,14.403,84.73,14.403z"/>
				<path fill="#FFFFFF" d="M28.966,53.946c-0.064-0.002-0.127-0.002-0.191-0.002c-0.117,0.135-0.237,0.272-0.354,0.408
					C28.602,54.216,28.785,54.082,28.966,53.946z"/>
			</g>
			<path fill="#0072BC" d="M110.034,21.977V7.704h-7.83v6.877C94.202,7.18,87.629,1.634,84.73,0c0,6.397,0,14.403,0,14.403
				s22.65,15.504,43.601,30.641c1.803,0.336,3.612,0.721,5.429,1.142C126.353,38.123,117.892,29.548,110.034,21.977z"/>
		</g>
	</g>
</g>
<g>
	<path fill="#0072BC" d="M90.957,59.319h2.811c0.326,0,0.654,0.023,0.984,0.068c0.33,0.047,0.626,0.14,0.889,0.278
		c0.263,0.138,0.476,0.331,0.64,0.58c0.162,0.248,0.244,0.578,0.244,0.989c0,0.427-0.119,0.779-0.356,1.06
		c-0.238,0.28-0.552,0.48-0.942,0.601v0.022c0.249,0.035,0.474,0.104,0.677,0.208c0.202,0.103,0.376,0.233,0.521,0.394
		c0.146,0.159,0.257,0.345,0.335,0.559c0.078,0.213,0.117,0.439,0.117,0.681c0,0.398-0.085,0.729-0.256,0.996
		c-0.17,0.266-0.39,0.48-0.66,0.644c-0.27,0.164-0.573,0.28-0.91,0.352s-0.672,0.106-1.006,0.106h-3.087V59.319z M92.617,62.332
		h1.203c0.128,0,0.254-0.015,0.378-0.042c0.124-0.028,0.236-0.075,0.336-0.139c0.099-0.064,0.179-0.149,0.239-0.256
		c0.06-0.105,0.091-0.233,0.091-0.384c0-0.155-0.034-0.284-0.102-0.388c-0.067-0.103-0.154-0.183-0.261-0.24
		c-0.106-0.056-0.228-0.098-0.362-0.122s-0.266-0.036-0.394-0.036h-1.129V62.332z M92.617,65.451h1.491
		c0.127,0,0.257-0.015,0.388-0.043c0.132-0.027,0.25-0.078,0.357-0.148c0.106-0.07,0.193-0.163,0.261-0.276
		c0.067-0.114,0.102-0.253,0.102-0.416c0-0.177-0.045-0.321-0.134-0.432c-0.089-0.108-0.2-0.192-0.336-0.249
		c-0.134-0.058-0.279-0.096-0.436-0.118c-0.156-0.021-0.302-0.031-0.437-0.031h-1.257V65.451z"/>
	<path fill="#0072BC" d="M104.424,63.95c0,0.447-0.067,0.858-0.202,1.234c-0.136,0.377-0.336,0.703-0.602,0.979
		c-0.267,0.276-0.599,0.494-0.995,0.65c-0.398,0.155-0.855,0.233-1.374,0.233c-0.524,0-0.986-0.078-1.384-0.233
		c-0.397-0.156-0.729-0.374-0.995-0.65c-0.266-0.276-0.467-0.603-0.602-0.979c-0.135-0.376-0.202-0.787-0.202-1.234v-4.631h1.66
		v4.567c0,0.233,0.038,0.45,0.112,0.648c0.074,0.199,0.179,0.371,0.314,0.517c0.135,0.146,0.296,0.259,0.483,0.341
		c0.188,0.081,0.393,0.123,0.612,0.123s0.423-0.042,0.606-0.123c0.185-0.082,0.345-0.195,0.479-0.341s0.24-0.317,0.314-0.517
		c0.074-0.198,0.111-0.415,0.111-0.648v-4.567h1.661V63.95z"/>
	<path fill="#0072BC" d="M106.148,59.319h1.66v7.537h-1.66V59.319z"/>
	<path fill="#0072BC" d="M109.597,59.319h1.661v6.004h3.076v1.533h-4.737V59.319z"/>
	<path fill="#0072BC" d="M115.941,60.788h-2.15v-1.469h5.962v1.469h-2.15v6.068h-1.661V60.788z"/>
	<path fill="#0072BC" d="M124.171,59.319h2.81c0.327,0,0.655,0.023,0.985,0.068c0.33,0.047,0.626,0.14,0.889,0.278
		c0.263,0.138,0.476,0.331,0.639,0.58c0.163,0.248,0.245,0.578,0.245,0.989c0,0.427-0.119,0.779-0.356,1.06
		c-0.238,0.28-0.552,0.48-0.942,0.601v0.022c0.248,0.035,0.474,0.104,0.676,0.208c0.203,0.103,0.376,0.233,0.521,0.394
		c0.146,0.159,0.258,0.345,0.336,0.559c0.078,0.213,0.116,0.439,0.116,0.681c0,0.398-0.084,0.729-0.255,0.996
		c-0.171,0.266-0.391,0.48-0.66,0.644c-0.27,0.164-0.573,0.28-0.91,0.352s-0.673,0.106-1.006,0.106h-3.087V59.319z M125.831,62.332
		h1.203c0.128,0,0.254-0.015,0.378-0.042c0.124-0.028,0.235-0.075,0.336-0.139c0.099-0.064,0.179-0.149,0.239-0.256
		c0.06-0.105,0.091-0.233,0.091-0.384c0-0.155-0.034-0.284-0.102-0.388c-0.067-0.103-0.154-0.183-0.262-0.24
		c-0.105-0.056-0.227-0.098-0.361-0.122s-0.266-0.036-0.394-0.036h-1.129V62.332z M125.831,65.451h1.491
		c0.127,0,0.257-0.015,0.388-0.043c0.132-0.027,0.25-0.078,0.356-0.148s0.193-0.163,0.262-0.276
		c0.067-0.114,0.101-0.253,0.101-0.416c0-0.177-0.044-0.321-0.133-0.432c-0.089-0.108-0.2-0.192-0.336-0.249
		c-0.135-0.058-0.28-0.096-0.436-0.118c-0.157-0.021-0.303-0.031-0.437-0.031h-1.257V65.451z"/>
	<path fill="#0072BC" d="M133.134,63.642l-2.832-4.322h2.065l1.598,2.82l1.692-2.82h1.969l-2.831,4.322v3.215h-1.661V63.642z"/>
</g>
</svg>
