<?xml version="1.0" encoding="utf-8"?>
<!DOCTYPE svg PUBLIC "-//W3C//DTD SVG 1.1//EN" "http://www.w3.org/Graphics/SVG/1.1/DTD/svg11.dtd">
<svg version="1.1" id="Layer_1" xmlns="http://www.w3.org/2000/svg" xmlns:xlink="http://www.w3.org/1999/xlink" x="0px" y="0px"
	 width="167.241px" height="95px" viewBox="0 0 167.241 95" enable-background="new 0 0 167.241 95" xml:space="preserve">
<g>
	<g>
		<g>
			<path fill="#2A3F63" d="M0,70.276h7.969c1.929,0,3.763,0.215,5.5,0.646c1.736,0.431,3.252,1.13,4.546,2.095
				s2.322,2.22,3.082,3.763c0.761,1.545,1.142,3.416,1.142,5.618c0,1.953-0.37,3.674-1.107,5.161
				c-0.737,1.486-1.732,2.736-2.98,3.745c-1.249,1.012-2.69,1.776-4.324,2.299c-1.635,0.523-3.35,0.783-5.143,0.783H0V70.276z
				 M5.312,89.483h2.758c1.226,0,2.368-0.126,3.423-0.375c1.056-0.25,1.97-0.664,2.742-1.242c0.771-0.58,1.379-1.341,1.822-2.282
				c0.442-0.943,0.663-2.095,0.663-3.458c0-1.179-0.221-2.207-0.663-3.081c-0.443-0.873-1.04-1.595-1.788-2.162
				c-0.749-0.568-1.63-0.994-2.64-1.276c-1.01-0.285-2.072-0.427-3.184-0.427H5.312V89.483z"/>
			<path fill="#2A3F63" d="M33.782,70.276h4.394l10.489,24.11h-5.994l-2.077-5.108h-9.365l-2.009,5.108h-5.858L33.782,70.276z
				 M35.825,77.291l-2.928,7.492h5.892L35.825,77.291z"/>
			<path fill="#2A3F63" d="M51.081,70.276H58.3l10.25,16.754h0.068V70.276h5.313v24.11h-6.947L56.462,77.223h-0.068v17.164h-5.312
				V70.276z"/>
			<path fill="#2A3F63" d="M78.835,70.276h8.99c1.044,0,2.094,0.073,3.149,0.222c1.056,0.147,2.004,0.441,2.844,0.885
				c0.84,0.442,1.521,1.061,2.043,1.854c0.522,0.797,0.783,1.853,0.783,3.168c0,1.363-0.379,2.493-1.14,3.389
				c-0.762,0.897-1.766,1.537-3.014,1.924v0.068c0.794,0.114,1.514,0.335,2.162,0.664c0.647,0.329,1.203,0.75,1.668,1.26
				c0.464,0.512,0.823,1.107,1.073,1.789c0.25,0.681,0.375,1.407,0.375,2.179c0,1.271-0.273,2.332-0.818,3.184
				s-1.248,1.539-2.111,2.062c-0.861,0.521-1.833,0.896-2.911,1.123c-1.079,0.228-2.152,0.341-3.219,0.341h-9.875V70.276z
				 M84.148,79.914h3.847c0.409,0,0.813-0.045,1.21-0.136s0.753-0.239,1.073-0.444c0.316-0.204,0.572-0.477,0.766-0.817
				c0.193-0.34,0.29-0.748,0.29-1.226c0-0.499-0.108-0.913-0.324-1.243c-0.215-0.328-0.492-0.584-0.833-0.766
				c-0.342-0.182-0.729-0.312-1.159-0.392c-0.431-0.079-0.851-0.119-1.26-0.119h-3.609V79.914z M84.148,89.893h4.767
				c0.409,0,0.824-0.046,1.244-0.137c0.42-0.091,0.801-0.25,1.141-0.478c0.341-0.226,0.618-0.521,0.834-0.885
				s0.323-0.807,0.323-1.329c0-0.567-0.142-1.026-0.426-1.38c-0.283-0.351-0.642-0.617-1.071-0.799
				c-0.433-0.182-0.898-0.307-1.398-0.375c-0.499-0.068-0.965-0.103-1.396-0.103h-4.018V89.893z"/>
			<path fill="#2A3F63" d="M121.233,85.09c0,1.43-0.217,2.747-0.647,3.95c-0.432,1.204-1.073,2.247-1.924,3.133
				c-0.852,0.886-1.913,1.578-3.185,2.077c-1.272,0.5-2.736,0.75-4.394,0.75c-1.68,0-3.155-0.25-4.427-0.75
				c-1.271-0.499-2.332-1.191-3.184-2.077s-1.493-1.929-1.925-3.133c-0.431-1.203-0.647-2.521-0.647-3.95V70.276h5.313v14.609
				c0,0.749,0.119,1.442,0.357,2.077c0.238,0.637,0.573,1.187,1.005,1.651c0.432,0.466,0.947,0.829,1.55,1.09
				c0.601,0.262,1.254,0.393,1.957,0.393s1.351-0.131,1.942-0.393c0.59-0.261,1.101-0.624,1.532-1.09
				c0.431-0.465,0.765-1.015,1.004-1.651c0.238-0.635,0.358-1.328,0.358-2.077V70.276h5.312V85.09z"/>
			<path fill="#2A3F63" d="M126.136,70.276h9.331c1.226,0,2.39,0.119,3.49,0.357c1.102,0.238,2.066,0.636,2.896,1.191
				c0.827,0.558,1.486,1.307,1.976,2.247c0.487,0.944,0.731,2.117,0.731,3.525c0,1.703-0.443,3.15-1.328,4.342
				c-0.886,1.193-2.18,1.947-3.882,2.265l6.129,10.183h-6.367l-5.041-9.638h-2.621v9.638h-5.313V70.276z M131.45,80.255h3.132
				c0.477,0,0.982-0.018,1.517-0.052c0.533-0.034,1.015-0.136,1.447-0.307c0.43-0.17,0.788-0.437,1.072-0.8
				c0.283-0.363,0.426-0.875,0.426-1.533c0-0.613-0.125-1.101-0.375-1.464c-0.251-0.363-0.568-0.643-0.953-0.834
				c-0.387-0.194-0.829-0.324-1.329-0.393c-0.5-0.067-0.987-0.102-1.464-0.102h-3.473V80.255z"/>
			<path fill="#2A3F63" d="M152.869,84.102l-9.059-13.825h6.607l5.107,9.024l5.415-9.024h6.301l-9.059,13.825v10.285h-5.313V84.102z
				"/>
		</g>
	</g>
	<g>
		<g>
			<rect x="76.39" y="28.281" fill="#2A3F63" width="6.958" height="4.737"/>
			<rect x="84.287" y="28.281" fill="#2A3F63" width="6.958" height="4.737"/>
			<rect x="76.39" y="33.878" fill="#2A3F63" width="6.958" height="4.737"/>
			<rect x="84.287" y="33.878" fill="#2A3F63" width="6.958" height="4.737"/>
		</g>
		<g>
			<path fill="#2A3F63" d="M7.423,55.089c6.626,1.131,13.211,1.971,19.94,2.154c8.104,0.225,16.22-0.378,24.249-1.47
				c8.228-1.123,16.447-2.747,24.47-4.896c7.821-1.995,15.625-3.75,23.709-4.263c10.972-0.693,21.854,0.54,32.523,3.105
				c5.241,1.261,10.424,2.814,15.496,4.639c2.394,0.859,4.78,1.745,7.134,2.711c0.431,0.177,3.625,1.494,4.872,2.053
				c-1.407-0.398-7.354-1.765-7.93-1.896c-3.597-0.83-7.193-1.651-10.815-2.378c-7.569-1.521-15.321-2.893-23.05-3.231
				c-8.124-0.355-16.107-0.171-24.157,1.077c-7.814,1.21-15.323,3.622-23.059,5.18c-11.405,2.301-22.947,3.665-34.599,3.17
				c-5.504-0.231-11.038-0.877-16.412-2.088c-2.641-0.596-5.264-1.271-7.834-2.124c-0.983-0.327-1.945-0.711-2.921-1.059
				C8.637,55.619,7.708,55.143,7.423,55.089z"/>
		</g>
		<g>
			<g>
				<path fill="#2A3F63" d="M83.847,14.252c0,0,0-7.922,0-14.252c-7.216,4.071-37.412,32.594-55.372,53.382
					c0.063,0,0.126,0,0.189,0.002C51.581,36.339,83.847,14.252,83.847,14.252z"/>
				<path fill="#FFFFFF" d="M28.664,53.384c-0.063-0.002-0.126-0.002-0.189-0.002c-0.116,0.134-0.235,0.27-0.351,0.403
					C28.303,53.651,28.485,53.518,28.664,53.384z"/>
			</g>
			<path fill="#0072BC" d="M108.887,21.748V7.623h-7.748v6.806C93.221,7.105,86.716,1.617,83.847,0c0,6.33,0,14.252,0,14.252
				s22.414,15.343,43.147,30.322c1.783,0.333,3.573,0.714,5.372,1.13C125.037,37.725,116.664,29.24,108.887,21.748z"/>
		</g>
	</g>
</g>
</svg>
