<?xml version="1.0" encoding="utf-8"?>
<!DOCTYPE svg PUBLIC "-//W3C//DTD SVG 1.1//EN" "http://www.w3.org/Graphics/SVG/1.1/DTD/svg11.dtd">
<svg version="1.1" id="Layer_1" xmlns="http://www.w3.org/2000/svg" xmlns:xlink="http://www.w3.org/1999/xlink" x="0px" y="0px"
	 width="10px" height="16.999px" viewBox="0 0 10 16.999" enable-background="new 0 0 10 16.999" xml:space="preserve">
<path fill="#FFFFFF" d="M9.122,16.999c-2.883,0-5.36,0-8.244,0C0.173,16.728,0,16.469,0,15.684c0-2.035,0-4.07,0-6.105
	C0,6.78-0.002,3.981,0.006,1.183c0-0.199,0.042-0.409,0.115-0.593C0.256,0.254,0.549,0.094,0.878,0c2.884,0,5.36,0,8.244,0
	C9.827,0.27,10,0.529,10,1.315c0,2.03,0,4.06,0,6.089c0,2.804,0.002,5.607-0.005,8.411c0,0.199-0.042,0.41-0.115,0.593
	C9.744,16.745,9.451,16.905,9.122,16.999z M8.952,2.667c-2.778,0-5.136,0-7.898,0c0,3.897,0,7.783,0,11.667c2.774,0,5.129,0,7.898,0
	C8.952,10.444,8.952,6.562,8.952,2.667z M4.991,1.594c0.568,0,1.136,0,1.704,0c0.054,0,0.109,0.003,0.162-0.007
	c0.14-0.029,0.222-0.12,0.219-0.266C7.073,1.183,6.991,1.097,6.859,1.07C6.806,1.06,6.751,1.063,6.697,1.063
	c-1.131,0-2.261,0-3.392,0c-0.064,0-0.132-0.002-0.193,0.016C2.989,1.113,2.92,1.206,2.924,1.335
	c0.003,0.123,0.07,0.209,0.187,0.242c0.056,0.016,0.117,0.016,0.177,0.016C3.855,1.594,4.423,1.594,4.991,1.594z M5.78,15.664
	c-0.004-0.433-0.358-0.79-0.782-0.789c-0.424,0.002-0.776,0.362-0.776,0.795c-0.001,0.439,0.36,0.803,0.791,0.796
	C5.436,16.46,5.783,16.096,5.78,15.664z"/>
</svg>
