<?xml version="1.0" encoding="utf-8"?>
<!DOCTYPE svg PUBLIC "-//W3C//DTD SVG 1.1//EN" "http://www.w3.org/Graphics/SVG/1.1/DTD/svg11.dtd">
<svg version="1.1" id="Layer_1" xmlns="http://www.w3.org/2000/svg" xmlns:xlink="http://www.w3.org/1999/xlink" x="0px" y="0px"
	 width="14px" height="10px" viewBox="0 0 14 10" enable-background="new 0 0 14 10" xml:space="preserve">
<path fill="#FFFFFF" d="M7.897,6.281C7.657,6.518,7.339,6.647,7,6.647s-0.658-0.13-0.897-0.366L5.061,5.254L0.415,9.831
	C0.57,9.938,0.759,10,0.962,10h12.075c0.204,0,0.392-0.062,0.547-0.169L8.939,5.254L7.897,6.281z"/>
<path fill="#FFFFFF" d="M13.954,9.341C13.983,9.25,14,9.153,14,9.052V0.948c0-0.193-0.059-0.373-0.16-0.522L9.373,4.828
	L13.954,9.341z"/>
<path fill="#FFFFFF" d="M0.16,0.426C0.059,0.576,0,0.755,0,0.948v8.104c0,0.101,0.017,0.198,0.046,0.29l4.581-4.514L0.16,0.426z"/>
<path fill="#FFFFFF" d="M13.038,0H0.962c-0.11,0-0.216,0.02-0.315,0.053l4.413,4.348l0.433,0.427l1.043,1.027
	C6.66,5.977,6.825,6.044,7,6.044s0.34-0.067,0.464-0.189l1.042-1.027l0.433-0.427l4.413-4.348C13.254,0.02,13.148,0,13.038,0z"/>
</svg>
