<?xml version="1.0" encoding="utf-8"?>
<!DOCTYPE svg PUBLIC "-//W3C//DTD SVG 1.1//EN" "http://www.w3.org/Graphics/SVG/1.1/DTD/svg11.dtd">
<svg version="1.1" id="Layer_1" xmlns="http://www.w3.org/2000/svg" xmlns:xlink="http://www.w3.org/1999/xlink" x="0px" y="0px"
	 width="46px" height="46px" viewBox="0 0 46 46" enable-background="new 0 0 46 46" xml:space="preserve">
<path fill="#FFFFFF" d="M38.06,0H7.94C3.554,0,0,3.554,0,7.938v30.122C0,42.445,3.554,46,7.94,46h30.12
	c4.385,0,7.94-3.555,7.94-7.939V7.938C46,3.554,42.445,0,38.06,0z M15.184,37.458H7.362V17.253h7.821V37.458z M11.342,15.205
	c-2.275,0-4.12-1.626-4.12-3.632s1.845-3.632,4.12-3.632s4.12,1.626,4.12,3.632S13.618,15.205,11.342,15.205z M39.438,37.458h-7.867
	c0,0,0-9.87,0-11.313c0-1.443-1.024-3.259-2.933-3.259s-2.794,2.235-2.794,3.026c0,0.792,0,11.546,0,11.546H18.07
	c0,0,0-14.62,0-15.55s-0.233-4.655-0.233-4.655l6.751-0.046c0,0,0.279,1.628,0.418,2.793c1.629-3.399,7.309-4.33,10.754-2.189
	c3.445,2.142,3.678,6.053,3.678,7.45C39.438,26.658,39.438,37.458,39.438,37.458z"/>
</svg>
