<?xml version="1.0" encoding="utf-8"?>
<!DOCTYPE svg PUBLIC "-//W3C//DTD SVG 1.1//EN" "http://www.w3.org/Graphics/SVG/1.1/DTD/svg11.dtd">
<svg version="1.1" id="Layer_1" xmlns="http://www.w3.org/2000/svg" xmlns:xlink="http://www.w3.org/1999/xlink" x="0px" y="0px"
	 width="46px" height="46px" viewBox="0 0 46 46" enable-background="new 0 0 46 46" xml:space="preserve">
<path fill="#FFFFFF" d="M38.061,0H7.94C3.555,0,0,3.554,0,7.939v30.121C0,42.446,3.555,46,7.94,46h30.121
	C42.445,46,46,42.446,46,38.061V7.939C46,3.554,42.445,0,38.061,0z M16.838,33.842C10.85,33.842,5.996,28.988,5.996,23
	s4.854-10.843,10.843-10.843c2.784,0,5.323,1.05,7.243,2.774l-3.182,3.183c-1.106-0.989-2.551-1.59-4.133-1.59
	c-3.476,0-6.293,2.891-6.293,6.458c0,3.567,2.817,6.458,6.293,6.458c2.776,0,5.146-1.302,5.8-4.269
	c0.003-0.011,0.005-0.022,0.008-0.034h-5.808v-4.348h10.167c0.148,0.714,0.235,1.39,0.235,2.146
	C27.167,29.76,22.826,33.842,16.838,33.842z M40.005,23.802H36.22v3.784h-2.724v-3.784h-3.784v-2.724h3.784v-3.784h2.724v3.784
	h3.784V23.802z"/>
</svg>
