<?xml version="1.0" encoding="utf-8"?>
<!DOCTYPE svg PUBLIC "-//W3C//DTD SVG 1.1//EN" "http://www.w3.org/Graphics/SVG/1.1/DTD/svg11.dtd">
<svg version="1.1" id="Layer_1" xmlns="http://www.w3.org/2000/svg" xmlns:xlink="http://www.w3.org/1999/xlink" x="0px" y="0px"
	 width="46px" height="46px" viewBox="0 0 46 46" enable-background="new 0 0 46 46" xml:space="preserve">
<path fill="#FFFFFF" d="M16.72,29.973h1.796c0,0,0,6.38,0,6.799c0,0.418,0.461,1.464,2.001,0c0-1.308,0-6.695,0-6.695h1.898v8.577
	h-1.898v-0.89c0,0-1.078,1.204-2.258,1.204c-1.18,0-1.539-1.099-1.539-1.517C16.72,37.033,16.72,29.973,16.72,29.973z"/>
<path fill="#FFFFFF" d="M9.419,26.815h6.79v1.808h-2.355v10.131h-2.19V28.512H9.419V26.815z"/>
<path fill="#FFFFFF" d="M29.863,31.287c-0.036-0.62-0.548-1.423-1.387-1.423c-0.84,0-1.387,0.072-2.409,1.022
	c0-0.694,0-3.907,0-3.907l-1.899-0.036v11.829h1.899v-0.877c0,0,1.35,0.986,2.044,0.986c0.949,0,1.752-0.475,1.752-1.752
	C29.863,35.851,29.88,31.579,29.863,31.287z M27.965,36.471c0,0.584-0.402,0.949-0.949,0.949s-0.949-0.438-0.949-0.438
	s0-4.454,0-5.075c0.182-0.365,0.511-0.621,1.095-0.621c0.584,0,0.803,0.657,0.803,0.804C27.965,32.237,27.965,35.887,27.965,36.471z
	"/>
<path fill="#FFFFFF" d="M37.493,34.683c0,0,0-2.227,0-2.519s-0.511-2.3-2.701-2.3c-1.971,0-3.104,1.059-3.104,2.154
	c0,1.095,0,4.49,0,4.854c0,0.366,0.803,1.972,2.848,1.972c2.044,0,2.957-1.643,2.957-1.862s0-1.277,0-1.277h-1.935
	c0,0-0.036,0.657-0.036,1.058c0,0.402-0.474,0.767-0.949,0.767c-0.474,0-1.022-0.511-1.022-0.986s0-1.862,0-1.862H37.493z
	 M33.514,33.368c0-0.547-0.073-2.044,1.205-2.044c1.278,0,0.949,2.044,0.949,2.044H33.514z"/>
<path fill="#FFFFFF" d="M23.082,20.709c0.848,0,1.287-0.903,1.287-1.287c0-0.384,0-4.874,0-6.134c0-1.259-1.04-1.423-1.424-1.423
	c-0.985,0-1.314,0.986-1.314,1.479c0,0.492,0,5.202,0,5.914C21.631,19.97,22.233,20.709,23.082,20.709z"/>
<path fill="#FFFFFF" d="M38.061,0H7.94C3.555,0,0,3.554,0,7.94v30.12C0,42.446,3.555,46,7.94,46h30.121
	c4.385,0,7.94-3.554,7.94-7.94V7.94C46,3.554,42.445,0,38.061,0z M29.571,10.076h2.556c0,0,0,8.909,0,9.492
	c0,0.585,0.657,2.045,2.847,0c0-1.825,0-9.346,0-9.346h2.702v11.975h-2.702v-1.241c0,0-1.533,1.68-3.213,1.68
	c-1.679,0-2.19-1.534-2.19-2.118C29.571,19.933,29.571,10.076,29.571,10.076z M18.765,13.362c0-0.876,0.876-3.432,4.089-3.432
	c1.095,0,4.162,0.219,4.162,3.797s0,3.14,0,4.527s-0.365,4.308-3.797,4.308c-3.432,0-4.454-2.556-4.454-3.359
	C18.765,18.4,18.765,14.238,18.765,13.362z M10.952,5.987l2.337,6.28l2.263-6.28h2.994l-3.87,9.638v6.645h-2.847v-6.645L7.813,5.987
	H10.952z M39.812,39.246c-0.876,2.246-1.424,2.464-4.162,2.792c-5.476,0.219-21.795,0.219-24.423-0.055
	c-2.629-0.274-4.655-0.985-4.819-5.53c-0.164-4.546-0.11-6.134,0-7.01c0.11-0.876,0.438-5.038,4.436-5.038
	c2.683-0.11,21.357-0.329,25.135,0c3.778,0.328,4.052,3.505,4.162,4.545C40.25,29.991,40.688,37,39.812,39.246z"/>
</svg>
